<mxfile host="app.diagrams.net" modified="2023-04-01T08:27:40.438Z" agent="Mozilla/5.0 (Macintosh; Intel Mac OS X 10_15_7) AppleWebKit/537.36 (KHTML, like Gecko) Chrome/112.0.0.0 Safari/537.36 Edg/112.0.1722.15" version="21.1.2" etag="WJknorN9jbViJUpNFy3U" type="github">
  <diagram name="第 1 页" id="hznZaaXJq6C4XmjnuRTw">
    <mxGraphModel>
      <root>
        <mxCell id="0" />
        <mxCell id="1" parent="0" />
      </root>
    </mxGraphModel>
  </diagram>
</mxfile>
